<svg xmlns="http://www.w3.org/2000/svg" viewBox="0 0 60.8 90.96"><defs><style>.cls-2{fill:#ff7300}</style></defs><g id="Capa_2" data-name="Capa 2"><g id="DESIGNED_BY_FREEPIK" data-name="DESIGNED BY FREEPIK"><circle cx="30.4" cy="31.27" r="30.4" style="fill:#16282c"/><path class="cls-2" d="m14.45 62.25-4.1 9.3c-.2.45-.38.92-.62 1.35s-.39.64-.8.58-.51-.47-.56-.81c-1.37-8.8-2.09-17.62 2.08-25.9 3-5.88 7.87-9.42 14.62-9.45 6.5 0 11.65 2.94 14.48 8.82 3.09 6.42 2.14 12.91-1.11 19.08a56.34 56.34 0 0 1-9.7 13.15c-.4.41-.78 1.26-1.52.79-.57-.36-.11-1 0-1.58.45-3.41 1.55-6.72 1.55-10.28C23.35 74.91 18.9 83.08 14 91l-.67-.17L15 62.36Z"/><path d="m37.72.85-25.2 25.39a4.4 4.4 0 0 0-.33 3.1 4.12 4.12 0 0 0 1.43 1.83c2.26 1.61 10.17 0 10.17 0 6.06-1.23 6-1.45 6.93-1.27 1.69.32 2.11 1 7.71 5.95 2.27 2 5.31 4.64 8.22 4.82a3.47 3.47 0 0 0 2.74-.75 3.07 3.07 0 0 0 .82-2.83L42.38 2.2A2.73 2.73 0 0 0 37.72.85Z" style="fill:#fff"/><path class="cls-2" d="m35.65 13.93-5.36 5a1 1 0 0 0-.3.57.6.6 0 0 0 0 .19.85.85 0 0 0 .15.41 1.19 1.19 0 0 0 .27.27c.42.29 3.23.61 4.49 1 1.51.43 3.39 1.65 4.35 1.75a.92.92 0 0 0 .75-.22.78.78 0 0 0 .22-.72l-1.68-7.36a1.74 1.74 0 0 0-2.89-.89Z"/></g></g></svg>